# xmcd CD database file
#
# Track frame offsets:
#	150
#	31555
#	66115
#	110151
#	131490
#	159623
#	181697
#	213347
#	240998
#
# Disc length: 3718 seconds
#
# Revision: 0
# Processed by: cddbd v1.5.2PL0 Copyright (c) Steve Scherf et al.
# Submitted via: CDex 1.70beta2
#
DISCID=6e0e8409
DTITLE=Hank Jones - In Copenhagen live at Jazzhus Slukefter
DYEAR=1983
DGENRE=Jazz
TTITLE0=Just Friends
TTITLE1=Au Privane
TTITLE2=Alone Together
TTITLE3=Stablemates
TTITLE4=It Could Happen to You
TTITLE5=Scapple from the Apple
TTITLE6=Budo
TTITLE7=Tangerine
TTITLE8=What's New
EXTD=YEAR: 1983
EXTT0=
EXTT1=
EXTT2=
EXTT3=
EXTT4=
EXTT5=
EXTT6=
EXTT7=
EXTT8=
PLAYORDER=
